<svg width="100" height="100" xmlns="http://www.w3.org/2000/svg">

 <g>
  <title>background</title>
  <rect fill="#1c252f" id="canvas_background" height="100" width="100" y="0" x="0" rx="20"/>
 </g>
 <g>
  <title>Layer 1</title>
  <g id="svg_1">
   <g id="svg_2">
    <g id="svg_3">
     <path id="svg_4" d="m35.249,72.89l1.766,0.503c14.401,4.097 29.926,0.931 41.498,-8.462a2.646,2.646 0 0 0 0.12,-4.02l-0.054,-0.05a3.75,3.75 0 0 0 -4.456,-0.452l-5.806,3.482c-5.878,3.526 -10.098,4.082 -16.405,3.168c-3.735,-0.542 -7.58,-3.909 -4.014,-7.127l6.039,-4.184a2.507,2.507 0 0 0 0.66,-3.471a2.582,2.582 0 0 0 -2.685,-1.068l-16.662,3.605l-2.75,2.926l0,12.422l2.749,2.728z" fill="#fff"/>
    </g>
    <g id="svg_5">
     <path id="svg_6" d="m20.5,53.15a4,4 0 0 1 4,-4l7,0a4,4 0 0 1 4,4l0,20a4,4 0 0 1 -4,4l-7,0a4,4 0 0 1 -4,-4l0,-20z" fill="#4a525e"/>
    </g>
    <g id="svg_7">
     <path id="svg_8" d="m59.31,46.632l14.61,-13.8c0.689,-0.65 0.775,-1.703 0.2,-2.453l-4.968,-6.489a1.901,1.901 0 0 0 -1.51,-0.74l-19.284,0a1.9,1.9 0 0 0 -1.51,0.74l-4.968,6.49a1.832,1.832 0 0 0 0.2,2.454l14.61,13.799c0.732,0.69 1.888,0.69 2.62,0l0,-0.001z" fill="#4a525e"/>
    </g>
    <g id="svg_9">
     <path id="svg_10" d="m48.178,25.094a0.934,0.934 0 0 1 0.741,-0.369l4.05,0l-1.979,6.516l-7.448,0l4.636,-6.147zm13.769,-0.369l1.978,6.516l-10.985,0l1.978,-6.516l7.029,0zm-3.514,20.732l-5.452,-12.331l10.904,0l-5.452,12.331zm14.768,-12.331l-12.643,12.15l5.37,-12.15l7.273,0zm-22.27,0l5.367,12.15l-12.633,-12.15l7.266,0zm5.56,14.931a2.794,2.794 0 0 0 3.884,0l14.421,-13.865a2.805,2.805 0 0 0 0.298,-3.705l-1.936,-2.573a0.937,0.937 0 1 0 -1.498,1.126l1.662,2.21l-7.442,0l-1.976,-6.526l4.046,0c0.29,0 0.567,0.138 0.741,0.37l0.716,0.95a0.937,0.937 0 1 0 1.498,-1.127l-0.716,-0.95a2.816,2.816 0 0 0 -2.239,-1.117l-19.034,0c-0.876,0 -1.713,0.418 -2.24,1.118l-4.904,6.519a2.805,2.805 0 0 0 0.297,3.705l14.422,13.865z" fill="#f0f0f0"/>
    </g>
   </g>
  </g>
 </g>
</svg>