<svg width="100" height="100" xmlns="http://www.w3.org/2000/svg">
 <g>
  <title>background</title>
  <rect rx="20" x="0" y="0" width="100" height="100" id="canvas_background" fill="#78a6b8"/>
 </g>

 <g>
  <title>Layer 1</title>
  <g id="svg_1">
   <g id="svg_2">
    <g id="svg_3">
     <path fill="#fff" d="m27.98197,27a7,7 0 0 1 7,-7l31,0a7,7 0 0 1 7,7l0,46a7,7 0 0 1 -7,7l-31,0a7,7 0 0 1 -7,-7l0,-46z" id="svg_4"/>
    </g>
    <g id="svg_5">
     <path fill="#99b5c0" d="m63.86897,74c0,-1.105 -0.912,-2 -2.037,-2l-36.812,0c-1.126,0 -2.038,0.895 -2.038,2l0,2c0,2.209 1.824,4 4.075,4l41.288,0c-3.383,0 -4.476,-2.68 -4.476,-6z" id="svg_6"/>
    </g>
    <g id="svg_7">
     <path fill="#99b5c0" d="m59.98497,38.997a1.993,1.993 0 0 1 -1.414,-0.586l-2.663,-2.586a2,2 0 1 1 2.828,-2.828l1.249,1.172l4.552,-4.843a2,2 0 1 1 2.828,2.828l-5.966,6.257c-0.39,0.39 -0.902,0.586 -1.414,0.586z" id="svg_8"/>
    </g>
    <g id="svg_9">
     <path fill="#99b5c0" d="m59.98497,50.997a1.993,1.993 0 0 1 -1.414,-0.586l-2.663,-2.586a2,2 0 1 1 2.828,-2.828l1.249,1.172l4.552,-4.843a2,2 0 1 1 2.828,2.828l-5.966,6.257c-0.39,0.39 -0.902,0.586 -1.414,0.586z" id="svg_10"/>
    </g>
    <g id="svg_11">
     <path fill="#78a6b8" d="m36.10697,37.143l12.75,0c1.175,0 2.125,-0.927 2.125,-2.072s-0.95,-2.071 -2.125,-2.071l-12.75,0c-1.175,0 -2.125,0.926 -2.125,2.071s0.95,2.072 2.125,2.072z" id="svg_12"/>
    </g>
    <g id="svg_13">
     <path fill="#78a6b8" d="m36.10697,62.143l12.75,0c1.175,0 2.125,-0.927 2.125,-2.072s-0.95,-2.071 -2.125,-2.071l-12.75,0c-1.175,0 -2.125,0.926 -2.125,2.071s0.95,2.072 2.125,2.072z" id="svg_14"/>
    </g>
    <g id="svg_15">
     <path fill="#78a6b8" d="m48.85697,45.43l-12.75,0c-1.175,0 -2.125,0.926 -2.125,2.071s0.95,2.072 2.125,2.072l12.75,0c1.175,0 2.125,-0.927 2.125,-2.072s-0.95,-2.071 -2.125,-2.071z" id="svg_16"/>
    </g>
   </g>
  </g>
 </g>
</svg>