<svg width="100" height="100" xmlns="http://www.w3.org/2000/svg">

 <g>
  <title>background</title>
  <rect fill="#eec42b" id="canvas_background" height="100" width="100" y="0" x="0" rx="20"/>
 </g>
 <g>
  <title>Layer 1</title>
  <g id="svg_1">
   <g id="svg_2">
    <g id="svg_3">
     <path id="svg_4" d="m63.88856,49.60907c-3.75,4.933 -5.878,10.635 -6.07,16.53l-15.623,0c-0.231,-5.701 -2.358,-11.365 -6.341,-16.914c-2.668,-3.7 -3.75,-8.247 -3.054,-12.794c1.53,-9.859 9.373,-14.6 17.206,-14.57c8.613,0.031 17.214,5.833 17.398,16.943c0.033,4.044 -1.135,7.628 -3.516,10.805z" fill="#fff"/>
    </g>
    <g id="svg_5">
     <path id="svg_6" d="m42.00456,68.10107c0.098,0.541 0.08,1.184 0.08,1.994c0,4.517 3.484,8.044 7.92,8.044c4.356,0 7.92,-3.566 7.92,-7.925c0,-0.943 -0.018,-1.575 0.08,-2.113l-8,0l-8,0z" fill="#fff"/>
    </g>
    <g id="svg_7">
     <path id="svg_8" d="m54.94256,37.80607a1.91,1.91 0 0 0 -2.71,0l-2.478,2.49l-2.478,-2.49a1.91,1.91 0 0 0 -2.71,0a1.933,1.933 0 0 0 0,2.724l3.271,3.289l0,6.908a1.92,1.92 0 0 0 1.917,1.927a1.92,1.92 0 0 0 1.917,-1.927l0,-6.908l3.271,-3.29a1.933,1.933 0 0 0 0,-2.723z" fill="#ffc83c"/>
    </g>
   </g>
  </g>
 </g>
</svg>